<?xml version="1.0" encoding="UTF-8" standalone="no"?>
<!-- Created with Inkscape (http://www.inkscape.org/) -->

<svg
   xmlns:dc="http://purl.org/dc/elements/1.1/"
   xmlns:cc="http://creativecommons.org/ns#"
   xmlns:rdf="http://www.w3.org/1999/02/22-rdf-syntax-ns#"
   xmlns:svg="http://www.w3.org/2000/svg"
   xmlns="http://www.w3.org/2000/svg"
   xmlns:sodipodi="http://sodipodi.sourceforge.net/DTD/sodipodi-0.dtd"
   xmlns:inkscape="http://www.inkscape.org/namespaces/inkscape"
   width="64.596031mm"
   height="106.92992mm"
   viewBox="0 0 64.596031 106.92992"
   version="1.1"
   id="svg8"
   inkscape:version="0.92.3 (2405546, 2018-03-11)"
   sodipodi:docname="Couple Dancing Silhouette.svg">
  <title
     id="title23">Couple Dancing Silhouette</title>
  <defs
     id="defs2" />
  <sodipodi:namedview
     id="base"
     pagecolor="#ffffff"
     bordercolor="#666666"
     borderopacity="1.0"
     inkscape:pageopacity="0.0"
     inkscape:pageshadow="2"
     inkscape:zoom="0.35"
     inkscape:cx="-4.557455"
     inkscape:cy="-270.08435"
     inkscape:document-units="mm"
     inkscape:current-layer="layer1"
     showgrid="false"
     fit-margin-top="0"
     fit-margin-left="0"
     fit-margin-right="0"
     fit-margin-bottom="0"
     inkscape:window-width="1920"
     inkscape:window-height="986"
     inkscape:window-x="1589"
     inkscape:window-y="-11"
     inkscape:window-maximized="1" />
  <metadata
     id="metadata5">
    <rdf:RDF>
      <cc:Work
         rdf:about="">
        <dc:format>image/svg+xml</dc:format>
        <dc:type
           rdf:resource="http://purl.org/dc/dcmitype/StillImage" />
        <dc:title>Couple Dancing Silhouette</dc:title>
        <cc:license
           rdf:resource="http://creativecommons.org/publicdomain/zero/1.0/" />
      </cc:Work>
      <cc:License
         rdf:about="http://creativecommons.org/publicdomain/zero/1.0/">
        <cc:permits
           rdf:resource="http://creativecommons.org/ns#Reproduction" />
        <cc:permits
           rdf:resource="http://creativecommons.org/ns#Distribution" />
        <cc:permits
           rdf:resource="http://creativecommons.org/ns#DerivativeWorks" />
      </cc:License>
    </rdf:RDF>
  </metadata>
  <g
     inkscape:label="Layer 1"
     inkscape:groupmode="layer"
     id="layer1"
     transform="translate(-107.03916,29.556403)">
    <path
       style="fill:#000000;stroke-width:1"
       d="m 116.5513,77.3032 c -0.14513,-0.0338 -0.41231,-0.0921 -0.59373,-0.12967 -0.90695,-0.18777 -2.10776,-0.74335 -2.54235,-1.17629 -0.19333,-0.19259 -0.35312,-0.43845 -0.4511,-0.69405 -0.0834,-0.21771 -0.17611,-0.45811 -0.20592,-0.53424 -0.044,-0.11243 -0.13141,-0.14648 -0.46567,-0.18141 -0.22631,-0.0237 -0.53329,-0.0437 -0.68217,-0.0445 -0.34794,-0.002 -0.7894,-0.20291 -0.93564,-0.4261 -0.14866,-0.22688 -0.13898,-0.5689 0.0393,-1.38663 0.0791,-0.36284 0.16997,-0.7874 0.20196,-0.94348 0.032,-0.15608 0.10331,-0.34822 0.15848,-0.42699 0.12492,-0.17835 0.12494,-0.61914 4e-5,-1.13639 -0.12455,-0.51585 -0.1222,-0.87872 0.008,-1.26763 0.17256,-0.51451 0.65312,-1.25935 1.28902,-1.9979 0.32803,-0.38097 0.62813,-0.75948 0.66688,-0.84112 0.0387,-0.0816 0.12367,-0.14843 0.18871,-0.14843 0.24347,0 0.45177,-0.1605 0.78083,-0.60163 0.43444,-0.5824 0.61553,-0.94771 0.82061,-1.65541 0.20355,-0.70239 0.27162,-1.14623 0.40258,-2.62475 0.13847,-1.56327 0.21299,-2.0744 0.43661,-2.99481 0.10488,-0.43165 0.19069,-0.84535 0.19069,-0.91934 0,-0.074 0.10257,-0.55204 0.22793,-1.06235 0.12537,-0.5103 0.34903,-1.47703 0.49704,-2.14827 0.36646,-1.66208 0.61784,-2.5897 0.9192,-3.392 0.25508,-0.6791 0.99285,-2.20783 1.381,-2.86158 0.11405,-0.19208 0.20736,-0.36106 0.20736,-0.3755 0,-0.0395 0.71595,-1.21143 0.94763,-1.55122 0.11133,-0.16328 0.50364,-0.60951 0.8718,-0.99162 0.36817,-0.38212 0.68716,-0.7532 0.70888,-0.82463 0.0217,-0.0714 0.0703,-0.38143 0.10798,-0.68889 0.12553,-1.02457 0.11389,-1.04677 -0.47202,-0.89982 -0.94793,0.23773 -1.62931,0.0471 -2.27509,-0.63641 -0.55801,-0.59063 -0.68363,-0.86887 -0.75301,-1.66792 -0.0398,-0.45787 -0.0378,-0.73958 0.006,-0.82103 0.0921,-0.17217 0.083,-0.39661 -0.0161,-0.39626 -0.0453,0 -0.29027,0.0737 -0.54426,0.16354 -0.5604,0.1981 -0.62973,0.20082 -0.95025,0.0373 -0.24401,-0.12449 -0.43991,-0.37943 -0.8025,-1.04434 -0.25339,-0.46465 -0.53703,-0.4466 -1.60349,0.10207 -0.47639,0.2451 -0.60547,0.28682 -0.69269,0.22389 -0.0589,-0.0425 -0.15171,-0.0949 -0.20614,-0.1164 -0.67732,-0.26746 -0.951,-0.45733 -1.33692,-0.92754 -0.45159,-0.55022 -0.68074,-0.68123 -1.19449,-0.68291 -0.70399,-0.002 -1.23355,-0.4254 -1.56743,-1.25232 -0.18886,-0.46774 -0.4073,-0.78659 -1.1259,-1.64337 -0.69524,-0.82894 -0.93022,-1.2846 -1.07744,-2.08925 -0.10176,-0.55622 -0.10178,-0.63812 -2.6e-4,-1.17996 0.18977,-1.01273 0.44178,-1.48556 1.31639,-2.46981 0.23875,-0.26868 0.43409,-0.50783 0.43409,-0.53146 0,-0.10195 1.23155,-1.09118 2.11518,-1.69899 1.31437,-0.9041 1.55166,-1.08982 3.20398,-2.50758 1.70315,-1.46138 3.10871,-2.8104 3.45561,-3.3166 0.13676,-0.19956 0.39371,-0.51127 0.57101,-0.69268 0.90624,-0.92729 2.1527,-2.76388 3.78125,-5.57142 0.39034,-0.67293 0.92124,-1.57975 1.17976,-2.01515 0.25853,-0.4354 0.47016,-0.84673 0.47029,-0.91406 1.3e-4,-0.0673 -0.0786,-0.21576 -0.17489,-0.32985 -0.26013,-0.30812 -0.41553,-0.6966105 -0.41716,-1.0428905 -0.001,-0.26079 -0.0363,-0.34358 -0.23005,-0.54309 -0.37302,-0.38411 -0.46147,-0.6067 -0.46144,-1.1613 4e-5,-0.62843 0.10801,-0.94663 0.77022,-2.2699 0.58827,-1.17551 0.56557,-1.02581 0.34796,-2.29478 -0.10355,-0.6039 -0.10913,-0.7583 -0.0387,-1.07278 0.0452,-0.20205 0.15778,-0.45716 0.25013,-0.56691 0.18161,-0.21584 0.53596,-0.39265 0.7869,-0.39265 0.18353,0 0.19422,-0.0819 0.0621,-0.47597998 -0.16197,-0.4831 -0.43985,-1.63644002 -0.56879,-2.36073002 -0.23491,-1.31946 -0.38215,-2.01341 -0.48803,-2.29998 -0.24961,-0.67557 -0.1899,-3.26008 0.10172,-4.403404 0.14209,-0.557074 0.14257,-0.571963 0.0204,-0.640227 -0.0688,-0.03844 -0.21214,-0.168203 -0.31859,-0.288364 -0.17073,-0.192708 -0.23298,-0.218592 -0.52776,-0.219469 -0.4305,-0.0013 -0.79871,-0.131688 -1.11019,-0.3931885 -0.34399,-0.288798 -0.50316,-0.637539 -0.58095,-1.272889 -0.11289,-0.92205 -0.17809,-1.060282 -0.60123,-1.274703 -0.38514,-0.195165 -0.75489,-0.513402 -0.88193,-0.759069 -0.0633,-0.122402 -0.0957,-0.392083 -0.0958,-0.798342 -1.9e-4,-0.496709 -0.0253,-0.654619 -0.13194,-0.829497 -0.25103,-0.411737 -0.16569,-0.882817 0.27162,-1.499227 0.14796,-0.208559 0.19967,-0.376474 0.24666,-0.800945 0.12711,-1.148253 0.54265,-1.645373 2.00157,-2.394504 0.51911,-0.266553 1.03595,-0.55282 1.14853,-0.636147 0.21716,-0.160727 0.27857,-0.332571 0.4225,-1.182134 0.239,-1.41068 0.79028,-2.685517 1.76872,-4.090149 1.167,-1.67533 2.00039,-2.414001 3.52872,-3.127665 0.374,-0.174638 0.7849,-0.409636 0.91312,-0.522217 0.29571,-0.259631 0.51254,-0.341312 0.90606,-0.341312 0.7623,0 1.39856,0.359343 1.67681,0.947012 0.12737,0.269008 0.22055,0.380549 0.34371,0.411462 0.19279,0.04839 0.75347,6.6e-5 1.28566,-0.11074 0.64106,-0.133506 1.8837,-0.147666 2.37579,-0.02707 0.59049,0.144705 1.07896,0.434318 1.30196,0.771914 0.15058,0.227955 0.18049,0.342963 0.17558,0.674908 -0.008,0.512085 -0.10811,0.698421 -0.6914,1.281718 l -0.47404,0.474033 0.24398,0.533737 c 0.36274,0.79354 0.50085,1.409549 0.53778,2.3987 0.0548,1.466988 0.0624,1.502897 0.42041,1.969931 0.78205,1.020335 0.94848,1.618834 0.56226,2.021955 -0.10503,0.109628 -0.31112,0.230302 -0.45798,0.268167 -0.47563,0.122627 -0.49792,0.134191 -0.49792,0.258286 0,0.06734 -0.0772,0.214151 -0.1715,0.32625 -0.15077,0.179183 -0.16627,0.24159 -0.12824,0.51633 0.0238,0.171883 0.0416,0.446103 0.0396,0.609379 -0.002,0.163276 -4.6e-4,0.415612 0.004,0.560746 0.0315,1.163252 0.0278,1.208298 -0.11321,1.397034 -0.17194,0.230116 -0.57477,0.3583 -0.83929,0.267071 -0.31485,-0.108588 -1.54987,-0.02471 -1.89146,0.128465 -0.64583,0.289601 -1.0108,0.911709 -1.09556,1.867451 l -0.0382,0.430128 0.2811,0.296865 c 0.62336,0.658297 2.3309,2.9222875 3.23414,4.2880605 0.25195,0.38097 0.87544,1.53133 1.38552,2.55634 0.88814,1.78471 0.93535,1.86366 1.1145,1.86366 0.22318,0 0.47303,-0.2893 0.76916,-0.8906 0.38423,-0.7802 1.23629,-2.3858 1.57539,-2.96866 0.49387,-0.84886 0.8611,-1.31282 1.60204,-2.023986 0.52708,-0.505912 0.77598,-0.689136 1.30466,-0.960432 0.68329,-0.350633 1.30605,-0.572905 1.8078,-0.6452305 0.39872,-0.05747 0.78603,-0.173589 1.41835,-0.425211 0.67541,-0.268767 2.1105,-0.983789 2.26682,-1.129419 0.13753,-0.128131 0.31272,-1.014746 0.24993,-1.264905 -0.022,-0.08765 -0.10219,-0.238441 -0.17821,-0.335082 -0.13532,-0.172025 -0.15229,-0.175361 -0.80957,-0.159151 -0.78357,0.01932 -0.9048,-0.03414 -1.23135,-0.543014 -0.27177,-0.423529 -0.44946,-0.947568 -0.55625,-1.640476 -0.10882,-0.706186 -0.14588,-0.798342 -0.5309,-1.320288 -0.37557,-0.509122 -0.71295,-1.115322 -0.86788,-1.559366 -0.0867,-0.248404 -0.1135,-0.525322 -0.10863,-1.121492 0.006,-0.779706 0.003,-0.800792 -0.25174,-1.398502 -0.23884,-0.561394 -0.25809,-0.65283 -0.25697,-1.220447 0.003,-1.428759 0.40454,-2.686906 1.29588,-4.05865 0.46462,-0.715022 1.68597,-1.567855 2.66111,-1.858164 0.16328,-0.04861 0.35624,-0.112659 0.42881,-0.142335 0.12793,-0.05232 0.22441,-0.07224 0.92358,-0.190771 0.18142,-0.03075 0.49313,-0.08844 0.69269,-0.128188 0.19956,-0.03975 0.40736,-0.07952 0.46179,-0.08839 0.1837,-0.02992 0.88695,0.08727 1.48885,0.248112 1.32617,0.354384 2.16595,0.822384 3.18767,1.776442 0.52852,0.493521 0.97647,1.546553 1.13531,2.668877 0.15539,1.097847 -0.0998,3.097863 -0.57307,4.490968 -0.43181,1.271131 -0.54714,2.061184 -0.45767,3.135223 0.0394,0.472403 0.0748,0.603201 0.19416,0.716899 0.0803,0.07649 0.33353,0.421094 0.5627,0.765788 0.68469,1.029835 0.81112,1.159651 1.41016,1.447859 1.39336,0.670367 3.89513,1.324873 5.05845,1.323377 0.16328,-1.98e-4 0.50467,0.04339 0.75866,0.09689 1.69308,0.356617 2.29769,0.661266 3.23546,1.630245 1.4296,1.4771835 1.98466,2.3694195 2.60356,4.1851495 0.1798,0.52749 0.4011,1.09762 0.49178,1.26695 0.24248,0.45283 0.61507,1.70963 0.69319,2.33823 0.0989,0.79602 -0.0262,1.68973002 -0.33702,2.40739002 -0.0743,0.17166 -0.16197,0.50508 -0.19473,0.74092 -0.0397,0.28586 -0.15942,0.63191998 -0.35913,1.03809998 -0.25693,0.52257 -0.42649,0.7461 -1.19125,1.57047 l -0.89168,0.96118 0.0471,0.30968 c 0.0739,0.48605 0.0544,2.04448 -0.0318,2.54028 -0.11049,0.63562 -0.37129,1.24292 -0.68854,1.60333 -0.47724,0.54219 -0.97384,0.79193 -2.27085,1.14204 -0.15361,0.0415 -0.31008,0.13291 -0.3477,0.20321 -0.0869,0.1624005 -0.25641,1.3693805 -0.25932,1.8466405 -0.005,0.78758 0.12379,2.03421 0.25858,2.50686 0.0776,0.27213 0.27221,0.91039 0.43245,1.41836 0.36803,1.1667 0.40998,1.37098 0.56597,2.7566 0.23786,2.11287 0.25779,2.67487 0.18992,5.35773 -0.0854,3.37661 -0.0826,4.70946 0.0109,5.21707 0.15014,0.81483 -0.17925,2.14517 -0.77526,3.13108 -0.17038,0.28184 -0.55792,0.78816 -0.8612,1.12517 -0.56315,0.62577 -0.8152,1.09288 -0.8152,1.51074 0,0.50089 -1.11348,2.67178 -2.19616,4.28176 -0.57233,0.85105 -0.97033,1.59261 -1.09673,2.0434 -0.0674,0.24021 -0.26087,0.91173 -0.43004,1.49227 -0.72283,2.48048 -0.90151,3.29156 -0.96648,4.38701 -0.0558,0.94081 -0.11805,1.37453 -0.31254,2.17702 -0.0396,0.16327 -0.10626,0.5492 -0.1482,0.85761 -0.0815,0.59935 -0.37228,1.90467 -0.79353,3.56238 -0.33176,1.30556 -0.93549,3.09952 -1.40667,4.17984 -0.20248,0.46427 -0.36815,0.88661 -0.36815,0.93854 0,0.0519 0.16263,0.27131 0.3614,0.48753 0.77322,0.84107 1.38132,1.80986 1.5285,2.43509 0.15241,0.64747 0.0737,2.11773 -0.14986,2.7989 -0.10317,0.31437 -0.40255,0.67542 -0.77918,0.93969 l -0.19361,0.13585 0.35277,0.88668 c 0.19402,0.48768 0.58543,1.41575 0.8698,2.06238 0.28438,0.64663 0.51704,1.18905 0.51704,1.20538 0,0.0163 0.12148,0.28881 0.26994,0.6055 0.6313,1.34663 0.79562,1.74944 0.85004,2.0838 0.12455,0.76529 -0.25935,1.52042 -0.86063,1.69287 -0.65575,0.18807 -2.72967,-0.07 -3.98666,-0.49615 -0.92297,-0.31288 -1.97883,-0.93495 -2.20551,-1.29939 -0.60973,-0.98028 -0.84361,-1.68947 -1.36087,-4.12658 -0.0212,-0.0997 -0.0798,-0.14875 -0.17868,-0.1494 -0.18238,-10e-4 -0.66614,-0.16653 -0.86121,-0.29434 -0.21609,-0.14159 -0.54198,-0.7235 -0.73977,-1.32096 -0.21784,-0.65802 -0.53739,-1.26895 -0.71785,-1.37242 -0.0755,-0.0433 -0.35995,-0.0818 -0.63208,-0.0856 -0.53573,-0.007 -0.94025,-0.14524 -1.35497,-0.46156 -0.30809,-0.23499 -0.60541,-0.86508 -0.73102,-1.54918 -0.0925,-0.50373 -0.093,-0.63164 -0.005,-1.22268 0.0539,-0.36305 0.1754,-0.8536 0.27002,-1.0901 0.15045,-0.37608 0.17203,-0.52505 0.17203,-1.18787 0,-1.08023 0.21712,-2.17124 0.7248,-3.64206 0.45375,-1.31455 0.84685,-1.98441 1.55904,-2.65669 l 0.35808,-0.33799 -0.0425,-0.38768 c -0.0234,-0.21321 -0.16097,-0.6946 -0.30574,-1.06976 -0.35378,-0.91679 -0.33849,-1.22177 0.10921,-2.17795 0.35568,-0.75966 0.35783,-0.66929 -0.0316,-1.32906 -0.27718,-0.46957 -0.0597,-1.06524 0.92746,-2.54017 0.33636,-0.50257 0.68591,-1.07917 0.77678,-1.28135 0.0909,-0.20217 0.20673,-0.41575 0.25747,-0.47462 0.16065,-0.1864 0.35166,-0.80367 0.36013,-1.16385 0.007,-0.30291 -0.0246,-0.39449 -0.24791,-0.71636 -0.61581,-0.88747 -0.75429,-1.11483 -0.87425,-1.43547 -0.21457,-0.57348 -0.66322,-2.32882 -0.86255,-3.37468 -0.20533,-1.07735 -0.36087,-1.52247 -0.81284,-2.32617 -0.47363,-0.8422 -0.62714,-1.2074 -0.84151,-2.0019 -0.6026,-2.23333 -1.23359,-3.88444 -1.86833,-4.88886 -0.28251,-0.44703 -0.28726,-0.46177 -0.40504,-1.25612 -0.0879,-0.59308 -0.1302,-0.71672 -0.35427,-1.03627 -0.62717,-0.8944 -0.80123,-1.48311 -0.99477,-3.36447 -0.12277,-1.1935 -0.25347,-2.04523 -0.46565,-3.03463 -0.34074,-1.5888 -0.24736,-1.97954 0.81825,-3.42394 0.8203,-1.1119 0.90718,-1.26422 1.29411,-2.26892 0.32296,-0.83859 0.52796,-1.1275 1.1688,-1.64723 0.51232,-0.41549 0.51723,-0.42501 0.71951,-1.39514 0.10937,-0.5245305 0.0993,-0.5407205 -0.37292,-0.5999305 -0.71134,-0.0892 -1.08683,-0.19795 -1.45645,-0.42191 -0.55534,-0.33647 -0.81884,-0.56019 -1.03796,-0.88124 -0.36315,-0.53207 -0.45681,-0.89872 -0.8088,-3.16594 -0.0981,-0.63178 -0.18734,-0.65472 -0.55437,-0.14248 -0.55494,0.77448 -1.41955,1.55845 -2.14549,1.94537 -0.21411,0.11412 -0.51907,0.33033 -0.67769,0.48047 -0.26624,0.252 -0.39084,0.40643 -0.98885,1.22558 -0.81663,1.11861 -1.24647,1.6588505 -1.70671,2.1450705 l -0.52656,0.55627 0.10585,0.97676 c 0.24967,2.30382 0.49425,4.38126 0.63149,5.36378 0.12017,0.86033 0.3286,1.58098 0.73301,2.53432 0.21584,0.50884 0.41928,1.04479 0.45208,1.19101 0.0328,0.14623 0.10407,0.46664 0.15839,0.71203 0.0557,0.2517 0.21131,0.63988 0.35699,0.8906 0.6492,1.11726 0.85977,1.75607 0.86575,2.62643 0.005,0.67114 0.43731,1.64477 1.28365,2.88835 0.73013,1.07284 0.90827,1.4024 1.18183,2.18636 0.12661,0.36284 0.27798,0.75319 0.33637,0.86745 0.0584,0.11426 0.16545,0.43412 0.23792,0.71079 0.2803,1.07015 0.65039,1.95007 1.60605,3.81843 1.05403,2.06071 1.05048,2.29699 -0.0394,2.62246 -0.78186,0.23347 -1.02284,0.56416 -1.12048,1.5376 -0.0325,0.3242 -0.0899,0.64689 -0.12744,0.7171 -0.1182,0.22087 -0.46842,0.32394 -0.83418,0.24549 -0.17583,-0.0377 -0.58466,-0.0599 -0.9085,-0.0493 l -0.58881,0.0192 -0.17644,0.65795 c -0.14158,0.52793 -0.21622,0.69348 -0.37769,0.83775 -0.1896,0.16941 -0.75186,0.38445 -1.00519,0.38445 -0.1338,0 -0.16188,0.0789 -0.48106,1.35239 -0.40186,1.60329 -1.47096,5.07655 -1.6245,5.27761 -0.0277,0.0363 -0.17572,0.42221 -0.32892,0.85761 -0.1532,0.43541 -0.4404,1.16273 -0.63822,1.61627 -1.0711,2.45573 -1.37987,3.21234 -1.67518,4.10492 -0.17873,0.5402 -0.32497,1.04767 -0.32497,1.12771 0,0.08 -0.0757,0.38267 -0.16826,0.6725 -0.27324,0.85576 -0.80692,2.89213 -1.00128,3.82064 -0.22719,1.08533 -0.25397,2.38861 -0.0591,2.87453 0.0655,0.16327 0.20715,0.5492 0.3148,0.85761 0.24635,0.70576 0.57216,1.3041 0.99302,1.8237 0.63692,0.78631 1.25563,1.07893 2.28169,1.07909 0.88896,0 1.03203,0.0792 1.31264,0.72557 0.24166,0.55663 0.26647,0.8423 0.11295,1.30061 -0.28732,0.85777 -0.94905,1.24047 -2.82993,1.63664 -0.66578,0.14024 -1.56907,0.12736 -1.99531,-0.0284 -0.49621,-0.18137 -0.76833,-0.36199 -1.41997,-0.94249 -0.8088,-0.7205 -1.23239,-0.9895 -1.61624,-1.02638 -0.23995,-0.0231 -0.34773,-10e-4 -0.45967,0.0922 -0.13588,0.11368 -0.15084,0.20623 -0.21161,1.30914 -0.0558,1.0133 -0.0826,1.19973 -0.18294,1.27516 -0.12643,0.095 -0.483,0.0749 -1.00814,-0.057 -0.16327,-0.041 -0.48983,-0.0967 -0.72567,-0.12368 -0.73073,-0.0837 -0.68992,-0.0206 -0.78378,-1.21143 -0.0337,-0.42752 -0.0931,-0.81571 -0.13209,-0.86265 -0.0389,-0.0469 -0.19336,-0.45416 -0.34313,-0.90493 -0.25863,-0.77842 -0.27062,-0.84941 -0.23849,-1.41332 0.0612,-1.07412 0.52608,-2.44721 1.09445,-3.23254 0.32835,-0.45367 0.58755,-1.03282 0.9329,-2.08445 0.48425,-1.4746 0.70394,-2.69777 1.01784,-5.66704 0.0556,-0.52611 0.14395,-1.2089 0.19628,-1.51731 0.0523,-0.30841 0.14096,-1.03573 0.19694,-1.61627 0.056,-0.58054 0.1443,-1.45629 0.19627,-1.94612 0.052,-0.48983 0.12832,-1.24683 0.16969,-1.68224 0.21912,-2.30654 1.04,-4.90335 2.1794,-6.89442 0.18125,-0.31672 0.32954,-0.59298 0.32954,-0.61391 0,-0.0209 -0.21365,-0.15033 -0.47478,-0.28754 -0.47222,-0.24815 -0.76363,-0.4962 -1.14149,-0.97167 -0.16747,-0.21072 -0.26387,-0.26383 -0.62671,-0.34524 -0.43958,-0.0986 -0.97105,-0.27355 -1.08851,-0.35826 -0.20588,-0.14849 -0.582,-0.32552 -0.69159,-0.32552 -0.16096,0 -0.17601,0.0542 -0.62723,2.25846 -0.19857,0.97002 -0.38981,1.81609 -0.42499,1.88015 -0.0352,0.0641 -0.18458,0.38125 -0.332,0.70487 -0.14742,0.32363 -0.45204,0.88767 -0.67692,1.25343 -0.65345,1.06282 -1.67663,2.62398 -1.88426,2.87503 -0.24049,0.29075 -0.71189,1.07138 -1.05822,1.75235 -0.47149,0.92709 -1.21155,2.55993 -1.29876,2.86556 -0.0466,0.16327 -0.21953,0.5492 -0.38431,0.85761 -0.37602,0.70377 -1.07794,2.22949 -1.4168,3.07958 -0.142,0.35626 -0.38311,0.95455 -0.53579,1.32953 -0.15268,0.375 -0.2618,0.72298 -0.24249,0.7733 0.038,0.099 -0.0187,0.29937 -0.26345,0.93117 -0.49642,1.28137 -1.06897,3.80699 -1.21629,5.36522 -0.12005,1.26974 -0.14744,1.48572 -0.19664,1.5503 -0.14794,0.19419 -0.22468,1.41328 -0.20929,3.32492 0.0223,2.77259 0.10416,3.10461 0.80974,3.28518 0.46365,0.11866 0.60881,0.21955 0.75711,0.52623 0.24432,0.50524 0.10873,1.23936 -0.29349,1.589 -0.3782,0.32877 -0.77956,0.41223 -1.93882,0.4032 -0.58825,-0.005 -1.18828,-0.036 -1.33342,-0.0697 z"
       id="path21"
       inkscape:connector-curvature="0" />
  </g>
</svg>
